<?xml version="1.0" standalone="no"?>
<svg width="2000" height="1800" xmlns="http://www.w3.org/2000/svg" xmlns:xlink="http://www.w3.org/1999/xlink"><g transform="translate(150,100)"><path class="link" d="M 230 156.418085106383
        C 115 156.418085106383,
          115 419.28736702127657,
          0 419.28736702127657" stroke="#f0abab" style="stroke: rgb(240, 171, 171); stroke-width: 3.06306; stroke-opacity: 0.7;"></path><path class="link" d="M 230 682.1566489361702
        C 115 682.1566489361702,
          115 419.28736702127657,
          0 419.28736702127657" stroke="#e06969" style="stroke: rgb(224, 105, 105); stroke-width: 4.13394; stroke-opacity: 0.7;"></path><path class="link" d="M 460 86.89893617021276
        C 345 86.89893617021276,
          345 156.418085106383,
          230 156.418085106383" style="stroke-width: 2.5; stroke-opacity: 0.7;"></path><path class="link" d="M 460 156.418085106383
        C 345 156.418085106383,
          345 156.418085106383,
          230 156.418085106383" stroke="#e99090" style="stroke: rgb(233, 144, 144); stroke-width: 3.5; stroke-opacity: 0.7;"></path><path class="link" d="M 460 225.9372340425532
        C 345 225.9372340425532,
          345 156.418085106383,
          230 156.418085106383" stroke="#f1afaf" style="stroke: rgb(241, 175, 175); stroke-width: 3; stroke-opacity: 0.7;"></path><path class="link" d="M 460 399.7351063829787
        C 345 399.7351063829787,
          345 682.1566489361702,
          230 682.1566489361702" stroke="#f4bebe" style="stroke: rgb(244, 190, 190); stroke-width: 2.75881; stroke-opacity: 0.7;"></path><path class="link" d="M 460 964.5781914893616
        C 345 964.5781914893616,
          345 682.1566489361702,
          230 682.1566489361702" stroke="#dd5c5c" style="stroke: rgb(221, 92, 92); stroke-width: 4.35694; stroke-opacity: 0.7;"></path><path class="link" d="M 690 364.9755319148936
        C 575 364.9755319148936,
          575 399.7351063829787,
          460 399.7351063829787" style="stroke-width: 2.5; stroke-opacity: 0.7;"></path><path class="link" d="M 690 434.49468085106383
        C 575 434.49468085106383,
          575 399.7351063829787,
          460 399.7351063829787" stroke="#f4bcbc" style="stroke: rgb(244, 188, 188); stroke-width: 2.7951; stroke-opacity: 0.7;"></path><path class="link" d="M 690 712.5712765957446
        C 575 712.5712765957446,
          575 964.5781914893616,
          460 964.5781914893616" stroke="#f6c4c4" style="stroke: rgb(246, 196, 196); stroke-width: 2.66721; stroke-opacity: 0.7;"></path><path class="link" d="M 690 964.5781914893616
        C 575 964.5781914893616,
          575 964.5781914893616,
          460 964.5781914893616" stroke="#db5353" style="stroke: rgb(219, 83, 83); stroke-width: 4.5; stroke-opacity: 0.7;"></path><path class="link" d="M 690 1216.5851063829787
        C 575 1216.5851063829787,
          575 964.5781914893616,
          460 964.5781914893616" stroke="#da4e4e" style="stroke: rgb(218, 78, 78); stroke-width: 4.57915; stroke-opacity: 0.7;"></path><path class="link" d="M 920 434.49468085106383
        C 805 434.49468085106383,
          805 434.49468085106383,
          690 434.49468085106383" stroke="#f4bcbc" style="stroke: rgb(244, 188, 188); stroke-width: 2.7951; stroke-opacity: 0.7;"></path><path class="link" d="M 920 608.2925531914893
        C 805 608.2925531914893,
          805 712.5712765957446,
          690 712.5712765957446" stroke="#f1afaf" style="stroke: rgb(241, 175, 175); stroke-width: 3; stroke-opacity: 0.7;"></path><path class="link" d="M 920 677.8117021276596
        C 805 677.8117021276596,
          805 712.5712765957446,
          690 712.5712765957446" style="stroke-width: 2.5; stroke-opacity: 0.7;"></path><path class="link" d="M 920 747.3308510638298
        C 805 747.3308510638298,
          805 712.5712765957446,
          690 712.5712765957446" style="stroke-width: 2.5; stroke-opacity: 0.7;"></path><path class="link" d="M 920 816.85
        C 805 816.85,
          805 712.5712765957446,
          690 712.5712765957446" style="stroke-width: 2.5; stroke-opacity: 0.7;"></path><path class="link" d="M 920 990.6478723404255
        C 805 990.6478723404255,
          805 1216.5851063829787,
          690 1216.5851063829787" stroke="#eb9999" style="stroke: rgb(235, 153, 153); stroke-width: 3.35347; stroke-opacity: 0.7;"></path><path class="link" d="M 920 1442.5223404255319
        C 805 1442.5223404255319,
          805 1216.5851063829787,
          690 1216.5851063829787" stroke="#cd1b1b" style="stroke: rgb(205, 27, 27); stroke-width: 5.40273; stroke-opacity: 0.7;"></path><path class="link" d="M 1150 312.836170212766
        C 1035 312.836170212766,
          1035 434.49468085106383,
          920 434.49468085106383" stroke="#f3bbbb" style="stroke: rgb(243, 187, 187); stroke-width: 2.81074; stroke-opacity: 0.7;"></path><path class="link" d="M 1150 556.1531914893617
        C 1035 556.1531914893617,
          1035 434.49468085106383,
          920 434.49468085106383" style="stroke-width: 2.5; stroke-opacity: 0.7;"></path><path class="link" d="M 1150 816.85
        C 1035 816.85,
          1035 990.6478723404255,
          920 990.6478723404255" style="stroke-width: 2.5; stroke-opacity: 0.7;"></path><path class="link" d="M 1150 886.3691489361702
        C 1035 886.3691489361702,
          1035 990.6478723404255,
          920 990.6478723404255" stroke="#f1afaf" style="stroke: rgb(241, 175, 175); stroke-width: 3; stroke-opacity: 0.7;"></path><path class="link" d="M 1150 955.8882978723404
        C 1035 955.8882978723404,
          1035 990.6478723404255,
          920 990.6478723404255" stroke="#e27272" style="stroke: rgb(226, 114, 114); stroke-width: 4; stroke-opacity: 0.7;"></path><path class="link" d="M 1150 1025.4074468085107
        C 1035 1025.4074468085107,
          1035 990.6478723404255,
          920 990.6478723404255" style="stroke-width: 2.5; stroke-opacity: 0.7;"></path><path class="link" d="M 1150 1094.9265957446808
        C 1035 1094.9265957446808,
          1035 990.6478723404255,
          920 990.6478723404255" stroke="#f1afaf" style="stroke: rgb(241, 175, 175); stroke-width: 3; stroke-opacity: 0.7;"></path><path class="link" d="M 1150 1164.445744680851
        C 1035 1164.445744680851,
          1035 990.6478723404255,
          920 990.6478723404255" stroke="#f1afaf" style="stroke: rgb(241, 175, 175); stroke-width: 3; stroke-opacity: 0.7;"></path><path class="link" d="M 1150 1338.2436170212766
        C 1035 1338.2436170212766,
          1035 1442.5223404255319,
          920 1442.5223404255319" stroke="#cc1515" style="stroke: rgb(204, 21, 21); stroke-width: 5.5; stroke-opacity: 0.7;"></path><path class="link" d="M 1150 1407.7627659574468
        C 1035 1407.7627659574468,
          1035 1442.5223404255319,
          920 1442.5223404255319" stroke="#d33434" style="stroke: rgb(211, 52, 52); stroke-width: 5; stroke-opacity: 0.7;"></path><path class="link" d="M 1150 1477.2819148936169
        C 1035 1477.2819148936169,
          1035 1442.5223404255319,
          920 1442.5223404255319" stroke="#cc1515" style="stroke: rgb(204, 21, 21); stroke-width: 5.5; stroke-opacity: 0.7;"></path><path class="link" d="M 1150 1546.8010638297872
        C 1035 1546.8010638297872,
          1035 1442.5223404255319,
          920 1442.5223404255319" stroke="#cc1515" style="stroke: rgb(204, 21, 21); stroke-width: 5.5; stroke-opacity: 0.7;"></path><path class="link" d="M 1380 278.07659574468084
        C 1265 278.07659574468084,
          1265 312.836170212766,
          1150 312.836170212766" style="stroke-width: 2.5; stroke-opacity: 0.7;"></path><path class="link" d="M 1380 347.59574468085106
        C 1265 347.59574468085106,
          1265 312.836170212766,
          1150 312.836170212766" stroke="#f1afaf" style="stroke: rgb(241, 175, 175); stroke-width: 3; stroke-opacity: 0.7;"></path><path class="link" d="M 1380 521.3936170212766
        C 1265 521.3936170212766,
          1265 556.1531914893617,
          1150 556.1531914893617" style="stroke-width: 2.5; stroke-opacity: 0.7;"></path><path class="link" d="M 1380 590.9127659574468
        C 1265 590.9127659574468,
          1265 556.1531914893617,
          1150 556.1531914893617" style="stroke-width: 2.5; stroke-opacity: 0.7;"></path><path class="link" d="M 1610 451.8744680851064
        C 1495 451.8744680851064,
          1495 521.3936170212766,
          1380 521.3936170212766" style="stroke-width: 2.5; stroke-opacity: 0.7;"></path><path class="link" d="M 1610 521.3936170212766
        C 1495 521.3936170212766,
          1495 521.3936170212766,
          1380 521.3936170212766" style="stroke-width: 2.5; stroke-opacity: 0.7;"></path><path class="link" d="M 1610 590.9127659574468
        C 1495 590.9127659574468,
          1495 521.3936170212766,
          1380 521.3936170212766" style="stroke-width: 2.5; stroke-opacity: 0.7;"></path><g class="node" transform="translate(0, 419.287353515625)"><circle class="node" r="20" cursor="pointer" style="fill: rgb(255, 255, 255);"></circle><text dy=".35em" x="-20" text-anchor="end" style="font-size: 25px;">Root</text><image class="node-image" xlink:href="data/CellTypeIcon_separate/Root.png" transform="translate (-12,-13)" width="30px" height="30px"></image></g><g class="node" transform="translate(230, 156.4180908203125)"><circle class="node" r="20" cursor="pointer" style="fill: rgb(255, 255, 255);"></circle><text dy=".35em" x="-20" text-anchor="end" style="font-size: 25px;">undecided</text><image class="node-image" xlink:href="data/CellTypeIcon_separate/undecided.png" transform="translate (-12,-13)" width="30px" height="30px"></image></g><g class="node" transform="translate(230, 682.1566772460938)"><circle class="node" r="20" cursor="pointer" style="fill: rgb(255, 255, 255);"></circle><text dy=".35em" x="-20" text-anchor="end" style="font-size: 25px;">Stem Cell</text><image class="node-image" xlink:href="data/CellTypeIcon_separate/Stem Cell.png" transform="translate (-12,-13)" width="30px" height="30px"></image></g><g class="node" transform="translate(460, 86.89893341064453)"><circle class="node" r="20" cursor="pointer" style="fill: rgb(255, 255, 255);"></circle><text dy=".35em" x="20" text-anchor="start" style="font-size: 25px;">Endothelial</text><image class="node-image" xlink:href="data/CellTypeIcon_separate/Endothelial.png" transform="translate (-12,-13)" width="30px" height="30px"></image></g><g class="node" transform="translate(460, 156.4180908203125)"><circle class="node" r="20" cursor="pointer" style="fill: rgb(255, 255, 255);"></circle><text dy=".35em" x="20" text-anchor="start" style="font-size: 25px;">Plasma</text><image class="node-image" xlink:href="data/CellTypeIcon_separate/Plasma.png" transform="translate (-12,-13)" width="30px" height="30px"></image></g><g class="node" transform="translate(460, 225.93724060058594)"><circle class="node" r="20" cursor="pointer" style="fill: rgb(255, 255, 255);"></circle><text dy=".35em" x="20" text-anchor="start" style="font-size: 25px;">CAF</text><image class="node-image" xlink:href="data/CellTypeIcon_separate/CAF.png" transform="translate (-12,-13)" width="30px" height="30px"></image></g><g class="node" transform="translate(460, 399.735107421875)"><circle class="node" r="20" cursor="pointer" style="fill: rgb(255, 255, 255);"></circle><text dy=".35em" x="-20" text-anchor="end" style="font-size: 25px;">Myeloid Progenitor</text><image class="node-image" xlink:href="data/CellTypeIcon_separate/Myeloid Progenitor.png" transform="translate (-12,-13)" width="30px" height="30px"></image></g><g class="node" transform="translate(460, 964.5781860351562)"><circle class="node" r="20" cursor="pointer" style="fill: rgb(255, 255, 255);"></circle><text dy=".35em" x="-20" text-anchor="end" style="font-size: 25px;">Lymphoid Progenitor</text><image class="node-image" xlink:href="data/CellTypeIcon_separate/Lymphoid Progenitor.png" transform="translate (-12,-13)" width="30px" height="30px"></image></g><g class="node" transform="translate(690, 364.97552490234375)"><circle class="node" r="20" cursor="pointer" style="fill: rgb(255, 255, 255);"></circle><text dy=".35em" x="20" text-anchor="start" style="font-size: 25px;">Mast</text><image class="node-image" xlink:href="data/CellTypeIcon_separate/Mast.png" transform="translate (-12,-13)" width="30px" height="30px"></image></g><g class="node" transform="translate(690, 434.49468994140625)"><circle class="node" r="20" cursor="pointer" style="fill: rgb(255, 255, 255);"></circle><text dy=".35em" x="-20" text-anchor="end" style="font-size: 25px;">Myeloblast</text><image class="node-image" xlink:href="data/CellTypeIcon_separate/Myeloblast.png" transform="translate (-12,-13)" width="30px" height="30px"></image></g><g class="node" transform="translate(690, 712.5712890625)"><circle class="node" r="20" cursor="pointer" style="fill: rgb(255, 255, 255);"></circle><text dy=".35em" x="-20" text-anchor="end" style="font-size: 25px;">B cell</text><image class="node-image" xlink:href="data/CellTypeIcon_separate/B cell.png" transform="translate (-12,-13)" width="30px" height="30px"></image></g><g class="node" transform="translate(690, 964.5781860351562)"><circle class="node" r="20" cursor="pointer" style="fill: rgb(255, 255, 255);"></circle><text dy=".35em" x="20" text-anchor="start" style="font-size: 25px;">NK</text><image class="node-image" xlink:href="data/CellTypeIcon_separate/NK.png" transform="translate (-12,-13)" width="30px" height="30px"></image></g><g class="node" transform="translate(690, 1216.5850830078125)"><circle class="node" r="20" cursor="pointer" style="fill: rgb(255, 255, 255);"></circle><text dy=".35em" x="-20" text-anchor="end" style="font-size: 25px;">T cell</text><image class="node-image" xlink:href="data/CellTypeIcon_separate/T cell.png" transform="translate (-12,-13)" width="30px" height="30px"></image></g><g class="node" transform="translate(920, 434.49468994140625)"><circle class="node" r="20" cursor="pointer" style="fill: rgb(255, 255, 255);"></circle><text dy=".35em" x="-20" text-anchor="end" style="font-size: 25px;">Monocyte</text><image class="node-image" xlink:href="data/CellTypeIcon_separate/Monocyte.png" transform="translate (-12,-13)" width="30px" height="30px"></image></g><g class="node" transform="translate(920, 608.2925415039062)"><circle class="node" r="20" cursor="pointer" style="fill: rgb(255, 255, 255);"></circle><text dy=".35em" x="20" text-anchor="start" style="font-size: 25px;">exhausted</text><image class="node-image" xlink:href="data/CellTypeIcon_separate/B cell exhausted.png" transform="translate (-12,-13)" width="30px" height="30px"></image></g><g class="node" transform="translate(920, 677.8117065429688)"><circle class="node" r="20" cursor="pointer" style="fill: rgb(255, 255, 255);"></circle><text dy=".35em" x="20" text-anchor="start" style="font-size: 25px;">naive</text><image class="node-image" xlink:href="data/CellTypeIcon_separate/B cell naive.png" transform="translate (-12,-13)" width="30px" height="30px"></image></g><g class="node" transform="translate(920, 747.3308715820312)"><circle class="node" r="20" cursor="pointer" style="fill: rgb(255, 255, 255);"></circle><text dy=".35em" x="20" text-anchor="start" style="font-size: 25px;">non-switched memory</text><image class="node-image" xlink:href="data/CellTypeIcon_separate/B cell non-switched memory.png" transform="translate (-12,-13)" width="30px" height="30px"></image></g><g class="node" transform="translate(920, 816.8499755859375)"><circle class="node" r="20" cursor="pointer" style="fill: rgb(255, 255, 255);"></circle><text dy=".35em" x="20" text-anchor="start" style="font-size: 25px;">switched memory</text><image class="node-image" xlink:href="data/CellTypeIcon_separate/B cell switched memory.png" transform="translate (-12,-13)" width="30px" height="30px"></image></g><g class="node" transform="translate(920, 990.6478881835938)"><circle class="node" r="20" cursor="pointer" style="fill: rgb(255, 255, 255);"></circle><text dy=".35em" x="-20" text-anchor="end" style="font-size: 25px;">T CD4</text><image class="node-image" xlink:href="data/CellTypeIcon_separate/T CD4.png" transform="translate (-12,-13)" width="30px" height="30px"></image></g><g class="node" transform="translate(920, 1442.5223388671875)"><circle class="node" r="20" cursor="pointer" style="fill: rgb(255, 255, 255);"></circle><text dy=".35em" x="-20" text-anchor="end" style="font-size: 25px;">T CD8</text><image class="node-image" xlink:href="data/CellTypeIcon_separate/T CD8.png" transform="translate (-12,-13)" width="30px" height="30px"></image></g><g class="node" transform="translate(1150, 312.836181640625)"><circle class="node" r="20" cursor="pointer" style="fill: rgb(255, 255, 255);"></circle><text dy=".35em" x="-20" text-anchor="end" style="font-size: 25px;">Macrophage</text><image class="node-image" xlink:href="data/CellTypeIcon_separate/Macrophage.png" transform="translate (-12,-13)" width="30px" height="30px"></image></g><g class="node" transform="translate(1150, 556.1531982421875)"><circle class="node" r="20" cursor="pointer" style="fill: rgb(255, 255, 255);"></circle><text dy=".35em" x="-20" text-anchor="end" style="font-size: 25px;">Dendritic Cell</text><image class="node-image" xlink:href="data/CellTypeIcon_separate/Dendritic Cell.png" transform="translate (-12,-13)" width="30px" height="30px"></image></g><g class="node" transform="translate(1150, 816.8499755859375)"><circle class="node" r="20" cursor="pointer" style="fill: rgb(255, 255, 255);"></circle><text dy=".35em" x="20" text-anchor="start" style="font-size: 25px;">naive</text><image class="node-image" xlink:href="data/CellTypeIcon_separate/T CD4 naive.png" transform="translate (-12,-13)" width="30px" height="30px"></image></g><g class="node" transform="translate(1150, 886.369140625)"><circle class="node" r="20" cursor="pointer" style="fill: rgb(255, 255, 255);"></circle><text dy=".35em" x="20" text-anchor="start" style="font-size: 25px;">Tfh</text><image class="node-image" xlink:href="data/CellTypeIcon_separate/Tfh.png" transform="translate (-12,-13)" width="30px" height="30px"></image></g><g class="node" transform="translate(1150, 955.8883056640625)"><circle class="node" r="20" cursor="pointer" style="fill: rgb(255, 255, 255);"></circle><text dy=".35em" x="20" text-anchor="start" style="font-size: 25px;">Th1</text><image class="node-image" xlink:href="data/CellTypeIcon_separate/Th1.png" transform="translate (-12,-13)" width="30px" height="30px"></image></g><g class="node" transform="translate(1150, 1025.407470703125)"><circle class="node" r="20" cursor="pointer" style="fill: rgb(255, 255, 255);"></circle><text dy=".35em" x="20" text-anchor="start" style="font-size: 25px;">Th17</text><image class="node-image" xlink:href="data/CellTypeIcon_separate/Th17.png" transform="translate (-12,-13)" width="30px" height="30px"></image></g><g class="node" transform="translate(1150, 1094.9266357421875)"><circle class="node" r="20" cursor="pointer" style="fill: rgb(255, 255, 255);"></circle><text dy=".35em" x="20" text-anchor="start" style="font-size: 25px;">Th2</text><image class="node-image" xlink:href="data/CellTypeIcon_separate/Th2.png" transform="translate (-12,-13)" width="30px" height="30px"></image></g><g class="node" transform="translate(1150, 1164.44580078125)"><circle class="node" r="20" cursor="pointer" style="fill: rgb(255, 255, 255);"></circle><text dy=".35em" x="20" text-anchor="start" style="font-size: 25px;">Treg</text><image class="node-image" xlink:href="data/CellTypeIcon_separate/Treg.png" transform="translate (-12,-13)" width="30px" height="30px"></image></g><g class="node" transform="translate(1150, 1338.24365234375)"><circle class="node" r="20" cursor="pointer" style="fill: rgb(255, 255, 255);"></circle><text dy=".35em" x="20" text-anchor="start" style="font-size: 25px;">central memory</text><image class="node-image" xlink:href="data/CellTypeIcon_separate/T CD8 central memory.png" transform="translate (-12,-13)" width="30px" height="30px"></image></g><g class="node" transform="translate(1150, 1407.7628173828125)"><circle class="node" r="20" cursor="pointer" style="fill: rgb(255, 255, 255);"></circle><text dy=".35em" x="20" text-anchor="start" style="font-size: 25px;">effector</text><image class="node-image" xlink:href="data/CellTypeIcon_separate/T CD8 effector.png" transform="translate (-12,-13)" width="30px" height="30px"></image></g><g class="node" transform="translate(1150, 1477.2818603515625)"><circle class="node" r="20" cursor="pointer" style="fill: rgb(255, 255, 255);"></circle><text dy=".35em" x="20" text-anchor="start" style="font-size: 25px;">effector memory</text><image class="node-image" xlink:href="data/CellTypeIcon_separate/T CD8 effector memory.png" transform="translate (-12,-13)" width="30px" height="30px"></image></g><g class="node" transform="translate(1150, 1546.801025390625)"><circle class="node" r="20" cursor="pointer" style="fill: rgb(255, 255, 255);"></circle><text dy=".35em" x="20" text-anchor="start" style="font-size: 25px;">exhausted</text><image class="node-image" xlink:href="data/CellTypeIcon_separate/T CD8 exhausted.png" transform="translate (-12,-13)" width="30px" height="30px"></image></g><g class="node" transform="translate(1380, 278.07659912109375)"><circle class="node" r="20" cursor="pointer" style="fill: rgb(255, 255, 255);"></circle><text dy=".35em" x="20" text-anchor="start" style="font-size: 25px;">M1</text><image class="node-image" xlink:href="data/CellTypeIcon_separate/Macrophage M1.png" transform="translate (-12,-13)" width="30px" height="30px"></image></g><g class="node" transform="translate(1380, 347.5957336425781)"><circle class="node" r="20" cursor="pointer" style="fill: rgb(255, 255, 255);"></circle><text dy=".35em" x="20" text-anchor="start" style="font-size: 25px;">M2</text><image class="node-image" xlink:href="data/CellTypeIcon_separate/Macrophage M2.png" transform="translate (-12,-13)" width="30px" height="30px"></image></g><g class="node" transform="translate(1380, 521.3936157226562)"><circle class="node" r="20" cursor="pointer" style="fill: rgb(255, 255, 255);"></circle><text dy=".35em" x="-20" text-anchor="end" style="font-size: 25px;">cDC</text><image class="node-image" xlink:href="data/CellTypeIcon_separate/cDC.png" transform="translate (-12,-13)" width="30px" height="30px"></image></g><g class="node" transform="translate(1380, 590.9127807617188)"><circle class="node" r="20" cursor="pointer" style="fill: rgb(255, 255, 255);"></circle><text dy=".35em" x="20" text-anchor="start" style="font-size: 25px;">pDC</text><image class="node-image" xlink:href="data/CellTypeIcon_separate/pDC.png" transform="translate (-12,-13)" width="30px" height="30px"></image></g><g class="node" transform="translate(1610, 451.8744812011719)"><circle class="node" r="20" cursor="pointer" style="fill: rgb(255, 255, 255);"></circle><text dy=".35em" x="20" text-anchor="start" style="font-size: 25px;">cDC1 CLEC9A</text><image class="node-image" xlink:href="data/CellTypeIcon_separate/cDC1 CLEC9A.png" transform="translate (-12,-13)" width="30px" height="30px"></image></g><g class="node" transform="translate(1610, 521.3936157226562)"><circle class="node" r="20" cursor="pointer" style="fill: rgb(255, 255, 255);"></circle><text dy=".35em" x="20" text-anchor="start" style="font-size: 25px;">cDC2 CD1C</text><image class="node-image" xlink:href="data/CellTypeIcon_separate/cDC2 CD1C.png" transform="translate (-12,-13)" width="30px" height="30px"></image></g><g class="node" transform="translate(1610, 590.9127807617188)"><circle class="node" r="20" cursor="pointer" style="fill: rgb(255, 255, 255);"></circle><text dy=".35em" x="20" text-anchor="start" style="font-size: 25px;">cDC3 LAMP3</text><image class="node-image" xlink:href="data/CellTypeIcon_separate/cDC3 LAMP3.png" transform="translate (-12,-13)" width="30px" height="30px"></image></g></g><defs xmlns="http://www.w3.org/1999/xhtml"><style type="text/css"><![CDATA[.node circle { fill: rgb(255, 255, 255); }.node text { font: 18px sans-serif; }.link { fill: none; stroke: rgb(204, 204, 204); stroke-width: 2px; }]]></style>
</defs></svg>