<?xml version="1.0" standalone="no"?>
<svg width="2000" height="1800" xmlns="http://www.w3.org/2000/svg" xmlns:xlink="http://www.w3.org/1999/xlink"><g transform="translate(150,100)"><path class="link" d="M 230 148.44255319148937
        C 115 148.44255319148937,
          115 397.90851063829786,
          0 397.90851063829786" stroke="#f0abab" style="stroke: rgb(240, 171, 171); stroke-width: 3.06306; stroke-opacity: 0.7;"></path><path class="link" d="M 230 647.3744680851064
        C 115 647.3744680851064,
          115 397.90851063829786,
          0 397.90851063829786" stroke="#e06969" style="stroke: rgb(224, 105, 105); stroke-width: 4.13394; stroke-opacity: 0.7;"></path><path class="link" d="M 460 82.46808510638297
        C 345 82.46808510638297,
          345 148.44255319148937,
          230 148.44255319148937" style="stroke-width: 2.5; stroke-opacity: 0.7;"></path><path class="link" d="M 460 148.44255319148937
        C 345 148.44255319148937,
          345 148.44255319148937,
          230 148.44255319148937" stroke="#e99090" style="stroke: rgb(233, 144, 144); stroke-width: 3.5; stroke-opacity: 0.7;"></path><path class="link" d="M 460 214.41702127659573
        C 345 214.41702127659573,
          345 148.44255319148937,
          230 148.44255319148937" stroke="#f1afaf" style="stroke: rgb(241, 175, 175); stroke-width: 3; stroke-opacity: 0.7;"></path><path class="link" d="M 460 379.3531914893617
        C 345 379.3531914893617,
          345 647.3744680851064,
          230 647.3744680851064" stroke="#f4bebe" style="stroke: rgb(244, 190, 190); stroke-width: 2.75881; stroke-opacity: 0.7;"></path><path class="link" d="M 460 915.3957446808511
        C 345 915.3957446808511,
          345 647.3744680851064,
          230 647.3744680851064" stroke="#dd5c5c" style="stroke: rgb(221, 92, 92); stroke-width: 4.35694; stroke-opacity: 0.7;"></path><path class="link" d="M 690 346.3659574468085
        C 575 346.3659574468085,
          575 379.3531914893617,
          460 379.3531914893617" style="stroke-width: 2.5; stroke-opacity: 0.7;"></path><path class="link" d="M 690 412.3404255319149
        C 575 412.3404255319149,
          575 379.3531914893617,
          460 379.3531914893617" stroke="#f4bcbc" style="stroke: rgb(244, 188, 188); stroke-width: 2.7951; stroke-opacity: 0.7;"></path><path class="link" d="M 690 676.2382978723404
        C 575 676.2382978723404,
          575 915.3957446808511,
          460 915.3957446808511" stroke="#f6c4c4" style="stroke: rgb(246, 196, 196); stroke-width: 2.66721; stroke-opacity: 0.7;"></path><path class="link" d="M 690 915.3957446808511
        C 575 915.3957446808511,
          575 915.3957446808511,
          460 915.3957446808511" stroke="#db5353" style="stroke: rgb(219, 83, 83); stroke-width: 4.5; stroke-opacity: 0.7;"></path><path class="link" d="M 690 1154.5531914893616
        C 575 1154.5531914893616,
          575 915.3957446808511,
          460 915.3957446808511" stroke="#da4e4e" style="stroke: rgb(218, 78, 78); stroke-width: 4.57915; stroke-opacity: 0.7;"></path><path class="link" d="M 920 412.3404255319149
        C 805 412.3404255319149,
          805 412.3404255319149,
          690 412.3404255319149" stroke="#f4bcbc" style="stroke: rgb(244, 188, 188); stroke-width: 2.7951; stroke-opacity: 0.7;"></path><path class="link" d="M 920 577.2765957446808
        C 805 577.2765957446808,
          805 676.2382978723404,
          690 676.2382978723404" stroke="#f1afaf" style="stroke: rgb(241, 175, 175); stroke-width: 3; stroke-opacity: 0.7;"></path><path class="link" d="M 920 643.2510638297872
        C 805 643.2510638297872,
          805 676.2382978723404,
          690 676.2382978723404" style="stroke-width: 2.5; stroke-opacity: 0.7;"></path><path class="link" d="M 920 709.2255319148936
        C 805 709.2255319148936,
          805 676.2382978723404,
          690 676.2382978723404" style="stroke-width: 2.5; stroke-opacity: 0.7;"></path><path class="link" d="M 920 775.1999999999999
        C 805 775.1999999999999,
          805 676.2382978723404,
          690 676.2382978723404" style="stroke-width: 2.5; stroke-opacity: 0.7;"></path><path class="link" d="M 920 940.1361702127659
        C 805 940.1361702127659,
          805 1154.5531914893616,
          690 1154.5531914893616" stroke="#eb9999" style="stroke: rgb(235, 153, 153); stroke-width: 3.35347; stroke-opacity: 0.7;"></path><path class="link" d="M 920 1368.9702127659573
        C 805 1368.9702127659573,
          805 1154.5531914893616,
          690 1154.5531914893616" stroke="#cd1b1b" style="stroke: rgb(205, 27, 27); stroke-width: 5.40273; stroke-opacity: 0.7;"></path><path class="link" d="M 1150 296.88510638297873
        C 1035 296.88510638297873,
          1035 412.3404255319149,
          920 412.3404255319149" stroke="#f3bbbb" style="stroke: rgb(243, 187, 187); stroke-width: 2.81074; stroke-opacity: 0.7;"></path><path class="link" d="M 1150 527.795744680851
        C 1035 527.795744680851,
          1035 412.3404255319149,
          920 412.3404255319149" style="stroke-width: 2.5; stroke-opacity: 0.7;"></path><path class="link" d="M 1150 775.1999999999999
        C 1035 775.1999999999999,
          1035 940.1361702127659,
          920 940.1361702127659" style="stroke-width: 2.5; stroke-opacity: 0.7;"></path><path class="link" d="M 1150 841.1744680851064
        C 1035 841.1744680851064,
          1035 940.1361702127659,
          920 940.1361702127659" stroke="#f1afaf" style="stroke: rgb(241, 175, 175); stroke-width: 3; stroke-opacity: 0.7;"></path><path class="link" d="M 1150 907.1489361702128
        C 1035 907.1489361702128,
          1035 940.1361702127659,
          920 940.1361702127659" stroke="#e27272" style="stroke: rgb(226, 114, 114); stroke-width: 4; stroke-opacity: 0.7;"></path><path class="link" d="M 1150 973.1234042553191
        C 1035 973.1234042553191,
          1035 940.1361702127659,
          920 940.1361702127659" style="stroke-width: 2.5; stroke-opacity: 0.7;"></path><path class="link" d="M 1150 1039.0978723404255
        C 1035 1039.0978723404255,
          1035 940.1361702127659,
          920 940.1361702127659" stroke="#f1afaf" style="stroke: rgb(241, 175, 175); stroke-width: 3; stroke-opacity: 0.7;"></path><path class="link" d="M 1150 1105.0723404255318
        C 1035 1105.0723404255318,
          1035 940.1361702127659,
          920 940.1361702127659" stroke="#f1afaf" style="stroke: rgb(241, 175, 175); stroke-width: 3; stroke-opacity: 0.7;"></path><path class="link" d="M 1150 1270.0085106382978
        C 1035 1270.0085106382978,
          1035 1368.9702127659573,
          920 1368.9702127659573" stroke="#cc1515" style="stroke: rgb(204, 21, 21); stroke-width: 5.5; stroke-opacity: 0.7;"></path><path class="link" d="M 1150 1335.9829787234041
        C 1035 1335.9829787234041,
          1035 1368.9702127659573,
          920 1368.9702127659573" stroke="#d33434" style="stroke: rgb(211, 52, 52); stroke-width: 5; stroke-opacity: 0.7;"></path><path class="link" d="M 1150 1401.9574468085107
        C 1035 1401.9574468085107,
          1035 1368.9702127659573,
          920 1368.9702127659573" stroke="#cc1515" style="stroke: rgb(204, 21, 21); stroke-width: 5.5; stroke-opacity: 0.7;"></path><path class="link" d="M 1150 1467.931914893617
        C 1035 1467.931914893617,
          1035 1368.9702127659573,
          920 1368.9702127659573" stroke="#cc1515" style="stroke: rgb(204, 21, 21); stroke-width: 5.5; stroke-opacity: 0.7;"></path><path class="link" d="M 1380 263.8978723404255
        C 1265 263.8978723404255,
          1265 296.88510638297873,
          1150 296.88510638297873" style="stroke-width: 2.5; stroke-opacity: 0.7;"></path><path class="link" d="M 1380 329.8723404255319
        C 1265 329.8723404255319,
          1265 296.88510638297873,
          1150 296.88510638297873" stroke="#f1afaf" style="stroke: rgb(241, 175, 175); stroke-width: 3; stroke-opacity: 0.7;"></path><path class="link" d="M 1380 494.80851063829783
        C 1265 494.80851063829783,
          1265 527.795744680851,
          1150 527.795744680851" style="stroke-width: 2.5; stroke-opacity: 0.7;"></path><path class="link" d="M 1380 560.7829787234042
        C 1265 560.7829787234042,
          1265 527.795744680851,
          1150 527.795744680851" style="stroke-width: 2.5; stroke-opacity: 0.7;"></path><path class="link" d="M 1610 428.83404255319147
        C 1495 428.83404255319147,
          1495 494.80851063829783,
          1380 494.80851063829783" style="stroke-width: 2.5; stroke-opacity: 0.7;"></path><path class="link" d="M 1610 494.80851063829783
        C 1495 494.80851063829783,
          1495 494.80851063829783,
          1380 494.80851063829783" style="stroke-width: 2.5; stroke-opacity: 0.7;"></path><path class="link" d="M 1610 560.7829787234042
        C 1495 560.7829787234042,
          1495 494.80851063829783,
          1380 494.80851063829783" style="stroke-width: 2.5; stroke-opacity: 0.7;"></path><g class="node" transform="translate(0, 397.90850830078125)"><circle class="node" r="20" cursor="pointer" style="fill: rgb(255, 255, 255);"></circle><text dy=".35em" x="-20" text-anchor="end" style="font-size: 25px;">Root</text><image class="node-image" xlink:href="data/CellTypeIcon_separate/Root.png" transform="translate (-12,-13)" width="30px" height="30px"></image></g><g class="node" transform="translate(230, 148.4425506591797)"><circle class="node" r="20" cursor="pointer" style="fill: rgb(255, 255, 255);"></circle><text dy=".35em" x="-20" text-anchor="end" style="font-size: 25px;">undecided</text><image class="node-image" xlink:href="data/CellTypeIcon_separate/undecided.png" transform="translate (-12,-13)" width="30px" height="30px"></image></g><g class="node" transform="translate(230, 647.3744506835938)"><circle class="node" r="20" cursor="pointer" style="fill: rgb(255, 255, 255);"></circle><text dy=".35em" x="-20" text-anchor="end" style="font-size: 25px;">Stem Cell</text><image class="node-image" xlink:href="data/CellTypeIcon_separate/Stem Cell.png" transform="translate (-12,-13)" width="30px" height="30px"></image></g><g class="node" transform="translate(460, 82.46808624267578)"><circle class="node" r="20" cursor="pointer" style="fill: rgb(255, 255, 255);"></circle><text dy=".35em" x="20" text-anchor="start" style="font-size: 25px;">Endothelial</text><image class="node-image" xlink:href="data/CellTypeIcon_separate/Endothelial.png" transform="translate (-12,-13)" width="30px" height="30px"></image></g><g class="node" transform="translate(460, 148.4425506591797)"><circle class="node" r="20" cursor="pointer" style="fill: rgb(255, 255, 255);"></circle><text dy=".35em" x="20" text-anchor="start" style="font-size: 25px;">Plasma</text><image class="node-image" xlink:href="data/CellTypeIcon_separate/Plasma.png" transform="translate (-12,-13)" width="30px" height="30px"></image></g><g class="node" transform="translate(460, 214.41702270507812)"><circle class="node" r="20" cursor="pointer" style="fill: rgb(255, 255, 255);"></circle><text dy=".35em" x="20" text-anchor="start" style="font-size: 25px;">CAF</text><image class="node-image" xlink:href="data/CellTypeIcon_separate/CAF.png" transform="translate (-12,-13)" width="30px" height="30px"></image></g><g class="node" transform="translate(460, 379.3531799316406)"><circle class="node" r="20" cursor="pointer" style="fill: rgb(255, 255, 255);"></circle><text dy=".35em" x="-20" text-anchor="end" style="font-size: 25px;">Myeloid Progenitor</text><image class="node-image" xlink:href="data/CellTypeIcon_separate/Myeloid Progenitor.png" transform="translate (-12,-13)" width="30px" height="30px"></image></g><g class="node" transform="translate(460, 915.395751953125)"><circle class="node" r="20" cursor="pointer" style="fill: rgb(255, 255, 255);"></circle><text dy=".35em" x="-20" text-anchor="end" style="font-size: 25px;">Lymphoid Progenitor</text><image class="node-image" xlink:href="data/CellTypeIcon_separate/Lymphoid Progenitor.png" transform="translate (-12,-13)" width="30px" height="30px"></image></g><g class="node" transform="translate(690, 346.365966796875)"><circle class="node" r="20" cursor="pointer" style="fill: rgb(255, 255, 255);"></circle><text dy=".35em" x="20" text-anchor="start" style="font-size: 25px;">Mast</text><image class="node-image" xlink:href="data/CellTypeIcon_separate/Mast.png" transform="translate (-12,-13)" width="30px" height="30px"></image></g><g class="node" transform="translate(690, 412.3404235839844)"><circle class="node" r="20" cursor="pointer" style="fill: rgb(255, 255, 255);"></circle><text dy=".35em" x="-20" text-anchor="end" style="font-size: 25px;">Myeloblast</text><image class="node-image" xlink:href="data/CellTypeIcon_separate/Myeloblast.png" transform="translate (-12,-13)" width="30px" height="30px"></image></g><g class="node" transform="translate(690, 676.23828125)"><circle class="node" r="20" cursor="pointer" style="fill: rgb(255, 255, 255);"></circle><text dy=".35em" x="-20" text-anchor="end" style="font-size: 25px;">B cell</text><image class="node-image" xlink:href="data/CellTypeIcon_separate/B cell.png" transform="translate (-12,-13)" width="30px" height="30px"></image></g><g class="node" transform="translate(690, 915.395751953125)"><circle class="node" r="20" cursor="pointer" style="fill: rgb(255, 255, 255);"></circle><text dy=".35em" x="20" text-anchor="start" style="font-size: 25px;">NK</text><image class="node-image" xlink:href="data/CellTypeIcon_separate/NK.png" transform="translate (-12,-13)" width="30px" height="30px"></image></g><g class="node" transform="translate(690, 1154.55322265625)"><circle class="node" r="20" cursor="pointer" style="fill: rgb(255, 255, 255);"></circle><text dy=".35em" x="-20" text-anchor="end" style="font-size: 25px;">T cell</text><image class="node-image" xlink:href="data/CellTypeIcon_separate/T cell.png" transform="translate (-12,-13)" width="30px" height="30px"></image></g><g class="node" transform="translate(920, 412.3404235839844)"><circle class="node" r="20" cursor="pointer" style="fill: rgb(255, 255, 255);"></circle><text dy=".35em" x="-20" text-anchor="end" style="font-size: 25px;">Monocyte</text><image class="node-image" xlink:href="data/CellTypeIcon_separate/Monocyte.png" transform="translate (-12,-13)" width="30px" height="30px"></image></g><g class="node" transform="translate(920, 577.276611328125)"><circle class="node" r="20" cursor="pointer" style="fill: rgb(255, 255, 255);"></circle><text dy=".35em" x="20" text-anchor="start" style="font-size: 25px;">exhausted</text><image class="node-image" xlink:href="data/CellTypeIcon_separate/B cell exhausted.png" transform="translate (-12,-13)" width="30px" height="30px"></image></g><g class="node" transform="translate(920, 643.2510375976562)"><circle class="node" r="20" cursor="pointer" style="fill: rgb(255, 255, 255);"></circle><text dy=".35em" x="20" text-anchor="start" style="font-size: 25px;">naive</text><image class="node-image" xlink:href="data/CellTypeIcon_separate/B cell naive.png" transform="translate (-12,-13)" width="30px" height="30px"></image></g><g class="node" transform="translate(920, 709.2255249023438)"><circle class="node" r="20" cursor="pointer" style="fill: rgb(255, 255, 255);"></circle><text dy=".35em" x="20" text-anchor="start" style="font-size: 25px;">non-switched memory</text><image class="node-image" xlink:href="data/CellTypeIcon_separate/B cell non-switched memory.png" transform="translate (-12,-13)" width="30px" height="30px"></image></g><g class="node" transform="translate(920, 775.2000122070312)"><circle class="node" r="20" cursor="pointer" style="fill: rgb(255, 255, 255);"></circle><text dy=".35em" x="20" text-anchor="start" style="font-size: 25px;">switched memory</text><image class="node-image" xlink:href="data/CellTypeIcon_separate/B cell switched memory.png" transform="translate (-12,-13)" width="30px" height="30px"></image></g><g class="node" transform="translate(920, 940.1361694335938)"><circle class="node" r="20" cursor="pointer" style="fill: rgb(255, 255, 255);"></circle><text dy=".35em" x="-20" text-anchor="end" style="font-size: 25px;">T CD4</text><image class="node-image" xlink:href="data/CellTypeIcon_separate/T CD4.png" transform="translate (-12,-13)" width="30px" height="30px"></image></g><g class="node" transform="translate(920, 1368.97021484375)"><circle class="node" r="20" cursor="pointer" style="fill: rgb(255, 255, 255);"></circle><text dy=".35em" x="-20" text-anchor="end" style="font-size: 25px;">T CD8</text><image class="node-image" xlink:href="data/CellTypeIcon_separate/T CD8.png" transform="translate (-12,-13)" width="30px" height="30px"></image></g><g class="node" transform="translate(1150, 296.8851013183594)"><circle class="node" r="20" cursor="pointer" style="fill: rgb(255, 255, 255);"></circle><text dy=".35em" x="-20" text-anchor="end" style="font-size: 25px;">Macrophage</text><image class="node-image" xlink:href="data/CellTypeIcon_separate/Macrophage.png" transform="translate (-12,-13)" width="30px" height="30px"></image></g><g class="node" transform="translate(1150, 527.7957153320312)"><circle class="node" r="20" cursor="pointer" style="fill: rgb(255, 255, 255);"></circle><text dy=".35em" x="-20" text-anchor="end" style="font-size: 25px;">Dendritic Cell</text><image class="node-image" xlink:href="data/CellTypeIcon_separate/Dendritic Cell.png" transform="translate (-12,-13)" width="30px" height="30px"></image></g><g class="node" transform="translate(1150, 775.2000122070312)"><circle class="node" r="20" cursor="pointer" style="fill: rgb(255, 255, 255);"></circle><text dy=".35em" x="20" text-anchor="start" style="font-size: 25px;">naive</text><image class="node-image" xlink:href="data/CellTypeIcon_separate/T CD4 naive.png" transform="translate (-12,-13)" width="30px" height="30px"></image></g><g class="node" transform="translate(1150, 841.1744384765625)"><circle class="node" r="20" cursor="pointer" style="fill: rgb(255, 255, 255);"></circle><text dy=".35em" x="20" text-anchor="start" style="font-size: 25px;">Tfh</text><image class="node-image" xlink:href="data/CellTypeIcon_separate/Tfh.png" transform="translate (-12,-13)" width="30px" height="30px"></image></g><g class="node" transform="translate(1150, 907.14892578125)"><circle class="node" r="20" cursor="pointer" style="fill: rgb(255, 255, 255);"></circle><text dy=".35em" x="20" text-anchor="start" style="font-size: 25px;">Th1</text><image class="node-image" xlink:href="data/CellTypeIcon_separate/Th1.png" transform="translate (-12,-13)" width="30px" height="30px"></image></g><g class="node" transform="translate(1150, 973.1234130859375)"><circle class="node" r="20" cursor="pointer" style="fill: rgb(255, 255, 255);"></circle><text dy=".35em" x="20" text-anchor="start" style="font-size: 25px;">Th17</text><image class="node-image" xlink:href="data/CellTypeIcon_separate/Th17.png" transform="translate (-12,-13)" width="30px" height="30px"></image></g><g class="node" transform="translate(1150, 1039.097900390625)"><circle class="node" r="20" cursor="pointer" style="fill: rgb(255, 255, 255);"></circle><text dy=".35em" x="20" text-anchor="start" style="font-size: 25px;">Th2</text><image class="node-image" xlink:href="data/CellTypeIcon_separate/Th2.png" transform="translate (-12,-13)" width="30px" height="30px"></image></g><g class="node" transform="translate(1150, 1105.0723876953125)"><circle class="node" r="20" cursor="pointer" style="fill: rgb(255, 255, 255);"></circle><text dy=".35em" x="20" text-anchor="start" style="font-size: 25px;">Treg</text><image class="node-image" xlink:href="data/CellTypeIcon_separate/Treg.png" transform="translate (-12,-13)" width="30px" height="30px"></image></g><g class="node" transform="translate(1150, 1270.008544921875)"><circle class="node" r="20" cursor="pointer" style="fill: rgb(255, 255, 255);"></circle><text dy=".35em" x="20" text-anchor="start" style="font-size: 25px;">central memory</text><image class="node-image" xlink:href="data/CellTypeIcon_separate/T CD8 central memory.png" transform="translate (-12,-13)" width="30px" height="30px"></image></g><g class="node" transform="translate(1150, 1335.9830322265625)"><circle class="node" r="20" cursor="pointer" style="fill: rgb(255, 255, 255);"></circle><text dy=".35em" x="20" text-anchor="start" style="font-size: 25px;">effector</text><image class="node-image" xlink:href="data/CellTypeIcon_separate/T CD8 effector.png" transform="translate (-12,-13)" width="30px" height="30px"></image></g><g class="node" transform="translate(1150, 1401.9573974609375)"><circle class="node" r="20" cursor="pointer" style="fill: rgb(255, 255, 255);"></circle><text dy=".35em" x="20" text-anchor="start" style="font-size: 25px;">effector memory</text><image class="node-image" xlink:href="data/CellTypeIcon_separate/T CD8 effector memory.png" transform="translate (-12,-13)" width="30px" height="30px"></image></g><g class="node" transform="translate(1150, 1467.931884765625)"><circle class="node" r="20" cursor="pointer" style="fill: rgb(255, 255, 255);"></circle><text dy=".35em" x="20" text-anchor="start" style="font-size: 25px;">exhausted</text><image class="node-image" xlink:href="data/CellTypeIcon_separate/T CD8 exhausted.png" transform="translate (-12,-13)" width="30px" height="30px"></image></g><g class="node" transform="translate(1380, 263.8978576660156)"><circle class="node" r="20" cursor="pointer" style="fill: rgb(255, 255, 255);"></circle><text dy=".35em" x="20" text-anchor="start" style="font-size: 25px;">M1</text><image class="node-image" xlink:href="data/CellTypeIcon_separate/Macrophage M1.png" transform="translate (-12,-13)" width="30px" height="30px"></image></g><g class="node" transform="translate(1380, 329.8723449707031)"><circle class="node" r="20" cursor="pointer" style="fill: rgb(255, 255, 255);"></circle><text dy=".35em" x="20" text-anchor="start" style="font-size: 25px;">M2</text><image class="node-image" xlink:href="data/CellTypeIcon_separate/Macrophage M2.png" transform="translate (-12,-13)" width="30px" height="30px"></image></g><g class="node" transform="translate(1380, 494.8085021972656)"><circle class="node" r="20" cursor="pointer" style="fill: rgb(255, 255, 255);"></circle><text dy=".35em" x="-20" text-anchor="end" style="font-size: 25px;">cDC</text><image class="node-image" xlink:href="data/CellTypeIcon_separate/cDC.png" transform="translate (-12,-13)" width="30px" height="30px"></image></g><g class="node" transform="translate(1380, 560.782958984375)"><circle class="node" r="20" cursor="pointer" style="fill: rgb(255, 255, 255);"></circle><text dy=".35em" x="20" text-anchor="start" style="font-size: 25px;">pDC</text><image class="node-image" xlink:href="data/CellTypeIcon_separate/pDC.png" transform="translate (-12,-13)" width="30px" height="30px"></image></g><g class="node" transform="translate(1610, 428.83404541015625)"><circle class="node" r="20" cursor="pointer" style="fill: rgb(255, 255, 255);"></circle><text dy=".35em" x="20" text-anchor="start" style="font-size: 25px;">cDC1 CLEC9A</text><image class="node-image" xlink:href="data/CellTypeIcon_separate/cDC1 CLEC9A.png" transform="translate (-12,-13)" width="30px" height="30px"></image></g><g class="node" transform="translate(1610, 494.8085021972656)"><circle class="node" r="20" cursor="pointer" style="fill: rgb(255, 255, 255);"></circle><text dy=".35em" x="20" text-anchor="start" style="font-size: 25px;">cDC2 CD1C</text><image class="node-image" xlink:href="data/CellTypeIcon_separate/cDC2 CD1C.png" transform="translate (-12,-13)" width="30px" height="30px"></image></g><g class="node" transform="translate(1610, 560.782958984375)"><circle class="node" r="20" cursor="pointer" style="fill: rgb(255, 255, 255);"></circle><text dy=".35em" x="20" text-anchor="start" style="font-size: 25px;">cDC3 LAMP3</text><image class="node-image" xlink:href="data/CellTypeIcon_separate/cDC3 LAMP3.png" transform="translate (-12,-13)" width="30px" height="30px"></image></g></g><defs xmlns="http://www.w3.org/1999/xhtml"><style type="text/css"><![CDATA[.node circle { fill: rgb(255, 255, 255); }.node text { font: 18px sans-serif; }.link { fill: none; stroke: rgb(204, 204, 204); stroke-width: 2px; }]]></style>
</defs></svg>